<svg xmlns="http://www.w3.org/2000/svg" xmlns:xlink="http://www.w3.org/1999/xlink" width="500" zoomAndPan="magnify" viewBox="0 0 375 374.999991" height="500" preserveAspectRatio="xMidYMid meet" version="1.0"><defs><clipPath id="1f4d898730"><path d="M 81.09375 316 L 294 316 L 294 375 L 81.09375 375 Z M 81.09375 316 " clip-rule="nonzero"/></clipPath></defs><path fill="#12100e" d="M 251.886719 275.085938 C 220.46875 192.152344 217.683594 123.402344 218.378906 89.601562 L 156.8125 89.601562 C 157.503906 123.402344 154.71875 192.152344 123.300781 275.085938 L 251.886719 275.085938 " fill-opacity="1" fill-rule="nonzero"/><path fill="#12100e" d="M 256.90625 283.871094 C 256.90625 286.503906 254.769531 288.632812 252.140625 288.632812 L 123.050781 288.632812 C 120.417969 288.632812 118.28125 286.503906 118.28125 283.871094 C 118.28125 281.242188 120.417969 279.113281 123.050781 279.113281 L 252.140625 279.113281 C 254.769531 279.113281 256.90625 281.242188 256.90625 283.871094 " fill-opacity="1" fill-rule="nonzero"/><g clip-path="url(#1f4d898730)"><path fill="#12100e" d="M 81.367188 375.011719 C 81.367188 316.625 107.253906 316.625 107.253906 316.625 L 267.9375 316.625 C 267.9375 316.625 293.816406 316.625 293.816406 375.011719 L 81.367188 375.011719 " fill-opacity="1" fill-rule="nonzero"/></g><path fill="#12100e" d="M 264.457031 302.417969 C 264.457031 307.992188 259.929688 312.511719 254.351562 312.511719 L 120.835938 312.511719 C 115.257812 312.511719 110.734375 307.992188 110.734375 302.417969 C 110.734375 296.839844 115.257812 292.320312 120.835938 292.320312 L 254.351562 292.320312 C 259.929688 292.320312 264.457031 296.839844 264.457031 302.417969 " fill-opacity="1" fill-rule="nonzero"/><path fill="#12100e" d="M 227.027344 81.242188 C 227.027344 83.871094 224.886719 86 222.257812 86 L 152.929688 86 C 150.296875 86 148.167969 83.871094 148.167969 81.242188 C 148.167969 78.617188 150.296875 76.480469 152.929688 76.480469 L 222.257812 76.480469 C 224.886719 76.480469 227.027344 78.617188 227.027344 81.242188 " fill-opacity="1" fill-rule="nonzero"/><path fill="#12100e" d="M 253.277344 -0.0117188 C 252.148438 -0.0117188 244.246094 -0.0117188 234.289062 -0.0117188 L 234.289062 15.746094 L 202.34375 15.746094 L 202.34375 -0.0117188 C 193.773438 -0.0117188 187.597656 -0.0117188 187.597656 -0.0117188 C 187.597656 -0.0117188 181.414062 -0.0117188 172.839844 -0.0117188 L 172.839844 15.746094 L 140.898438 15.746094 L 140.898438 -0.0117188 C 130.941406 -0.0117188 123.039062 -0.0117188 121.917969 -0.0117188 C 118.589844 -0.0117188 118.921875 2.730469 118.921875 2.730469 C 118.921875 2.730469 118.921875 15.03125 118.921875 29.988281 C 118.921875 44.949219 125.578125 52.429688 125.578125 52.429688 C 125.578125 52.429688 134.558594 63.402344 139.550781 68.054688 C 144.542969 72.710938 153.195312 72.042969 153.195312 72.042969 L 221.996094 72.042969 C 221.996094 72.042969 230.648438 72.710938 235.640625 68.054688 C 240.632812 63.402344 249.617188 52.429688 249.617188 52.429688 C 249.617188 52.429688 256.269531 44.949219 256.269531 29.988281 C 256.269531 15.03125 256.269531 2.730469 256.269531 2.730469 C 256.269531 2.730469 256.601562 -0.0117188 253.277344 -0.0117188 " fill-opacity="1" fill-rule="nonzero"/></svg>