<svg xmlns="http://www.w3.org/2000/svg" xmlns:xlink="http://www.w3.org/1999/xlink" width="500" zoomAndPan="magnify" viewBox="0 0 375 374.999991" height="500" preserveAspectRatio="xMidYMid meet" version="1.0"><defs><clipPath id="f50940efc4"><path d="M 98.4375 326 L 276.9375 326 L 276.9375 375 L 98.4375 375 Z M 98.4375 326 " clip-rule="nonzero"/></clipPath></defs><path fill="#12100e" d="M 241.539062 291.351562 C 215.222656 221.96875 212.890625 164.464844 213.472656 136.1875 L 161.90625 136.1875 C 162.484375 164.464844 160.152344 221.96875 133.835938 291.351562 L 241.539062 291.351562 " fill-opacity="1" fill-rule="nonzero"/><path fill="#12100e" d="M 245.738281 298.703125 C 245.738281 300.902344 243.949219 302.683594 241.746094 302.683594 L 133.628906 302.683594 C 131.421875 302.683594 129.632812 300.902344 129.632812 298.703125 C 129.632812 296.503906 131.421875 294.71875 133.628906 294.71875 L 241.746094 294.71875 C 243.949219 294.71875 245.738281 296.503906 245.738281 298.703125 " fill-opacity="1" fill-rule="nonzero"/><g clip-path="url(#f50940efc4)"><path fill="#12100e" d="M 98.714844 374.945312 C 98.714844 326.101562 120.398438 326.101562 120.398438 326.101562 L 254.976562 326.101562 C 254.976562 326.101562 276.65625 326.101562 276.65625 374.945312 L 98.714844 374.945312 " fill-opacity="1" fill-rule="nonzero"/></g><path fill="#12100e" d="M 252.066406 314.214844 C 252.066406 318.882812 248.273438 322.664062 243.601562 322.664062 L 131.773438 322.664062 C 127.101562 322.664062 123.3125 318.882812 123.3125 314.214844 C 123.3125 309.546875 127.101562 305.773438 131.773438 305.773438 L 243.601562 305.773438 C 248.273438 305.773438 252.066406 309.546875 252.066406 314.214844 " fill-opacity="1" fill-rule="nonzero"/><path fill="#12100e" d="M 220.714844 129.191406 C 220.714844 131.394531 218.925781 133.175781 216.722656 133.175781 L 158.652344 133.175781 C 156.449219 133.175781 154.664062 131.394531 154.664062 129.191406 C 154.664062 126.992188 156.449219 125.210938 158.652344 125.210938 L 216.722656 125.210938 C 218.925781 125.210938 220.714844 126.992188 220.714844 129.191406 " fill-opacity="1" fill-rule="nonzero"/><path fill="#12100e" d="M 180.605469 18.03125 C 178.523438 16.132812 177.277344 13.363281 177.277344 10.332031 C 177.277344 4.59375 181.941406 -0.0546875 187.6875 -0.0546875 C 193.4375 -0.0546875 198.097656 4.59375 198.097656 10.332031 C 198.097656 13.363281 196.855469 16.132812 194.769531 18.03125 L 180.605469 18.03125 " fill-opacity="1" fill-rule="nonzero"/><path fill="#12100e" d="M 215.375 41.914062 C 206.171875 26.800781 194.816406 20.125 194.816406 20.125 L 180.5625 20.125 C 180.5625 20.125 152.902344 36.347656 148.90625 75.613281 C 146.269531 101.558594 154.773438 115.546875 160.847656 122.050781 L 214.527344 122.046875 C 220.601562 115.542969 229.105469 101.558594 226.464844 75.613281 C 225.503906 66.117188 223.148438 57.984375 220.140625 51.085938 C 219.988281 50.910156 218.902344 49.691406 217.257812 48.757812 C 217.207031 48.726562 217.164062 48.707031 217.121094 48.679688 C 216.972656 48.597656 216.820312 48.519531 216.664062 48.441406 C 216.636719 48.425781 216.609375 48.417969 216.582031 48.40625 C 216.445312 48.339844 216.308594 48.28125 216.164062 48.21875 C 216.117188 48.203125 216.0625 48.179688 216.015625 48.164062 C 215.863281 48.105469 215.710938 48.050781 215.554688 47.996094 C 215.53125 47.988281 215.507812 47.980469 215.484375 47.976562 C 215.308594 47.917969 215.128906 47.871094 214.945312 47.828125 C 214.890625 47.820312 214.839844 47.804688 214.792969 47.792969 C 214.640625 47.761719 214.488281 47.734375 214.335938 47.714844 C 214.285156 47.707031 214.242188 47.703125 214.199219 47.691406 C 214.007812 47.671875 213.8125 47.652344 213.617188 47.648438 C 213.570312 47.644531 213.519531 47.644531 213.476562 47.644531 C 213.316406 47.644531 213.152344 47.648438 212.988281 47.65625 C 212.933594 47.65625 212.875 47.664062 212.820312 47.667969 C 212.609375 47.683594 212.402344 47.710938 212.191406 47.75 C 212.171875 47.753906 212.144531 47.757812 212.121094 47.765625 C 211.933594 47.800781 211.738281 47.847656 211.546875 47.90625 C 211.488281 47.921875 211.425781 47.945312 211.363281 47.960938 C 211.179688 48.023438 210.984375 48.09375 210.800781 48.171875 C 210.765625 48.183594 210.734375 48.195312 210.699219 48.210938 C 210.480469 48.304688 210.261719 48.417969 210.042969 48.539062 C 209.980469 48.574219 209.917969 48.609375 209.863281 48.644531 C 209.683594 48.75 209.503906 48.863281 209.328125 48.988281 C 209.269531 49.027344 209.214844 49.0625 209.160156 49.101562 C 208.933594 49.261719 208.714844 49.433594 208.488281 49.632812 C 208.4375 49.671875 208.390625 49.71875 208.34375 49.761719 C 208.15625 49.925781 207.972656 50.101562 207.785156 50.285156 C 207.71875 50.351562 207.660156 50.417969 207.59375 50.484375 C 207.367188 50.722656 207.136719 50.972656 206.90625 51.25 C 206.894531 51.269531 206.875 51.289062 206.859375 51.3125 C 206.644531 51.574219 206.429688 51.855469 206.21875 52.148438 C 206.152344 52.238281 206.085938 52.328125 206.023438 52.421875 C 205.832031 52.695312 205.632812 52.984375 205.441406 53.289062 C 205.402344 53.355469 205.363281 53.410156 205.324219 53.476562 C 205.097656 53.839844 204.871094 54.234375 204.644531 54.640625 C 204.589844 54.746094 204.527344 54.859375 204.472656 54.96875 C 204.292969 55.300781 204.109375 55.652344 203.933594 56.019531 C 203.875 56.136719 203.820312 56.25 203.761719 56.367188 C 203.539062 56.835938 203.316406 57.324219 203.097656 57.839844 C 203.054688 57.933594 203.011719 58.042969 202.96875 58.144531 C 202.785156 58.582031 202.605469 59.039062 202.421875 59.507812 C 202.359375 59.664062 202.296875 59.824219 202.242188 59.984375 C 202.019531 60.574219 201.800781 61.175781 201.589844 61.8125 C 193.675781 85.289062 206.292969 113.671875 206.292969 113.671875 C 206.292969 113.671875 190.46875 84.328125 200.304688 57.222656 C 200.609375 56.390625 200.910156 55.601562 201.210938 54.851562 C 201.355469 54.492188 201.496094 54.171875 201.640625 53.828125 C 201.796875 53.453125 201.960938 53.0625 202.117188 52.710938 C 202.273438 52.359375 202.429688 52.042969 202.585938 51.710938 C 202.730469 51.402344 202.875 51.082031 203.015625 50.792969 C 203.183594 50.457031 203.347656 50.15625 203.515625 49.84375 C 203.648438 49.597656 203.785156 49.324219 203.914062 49.085938 C 204.085938 48.777344 204.253906 48.507812 204.429688 48.222656 C 204.554688 48.015625 204.679688 47.785156 204.808594 47.585938 C 204.980469 47.304688 205.15625 47.058594 205.328125 46.800781 C 205.453125 46.628906 205.570312 46.4375 205.691406 46.273438 C 205.878906 46.011719 206.066406 45.78125 206.253906 45.542969 C 206.355469 45.410156 206.460938 45.269531 206.5625 45.144531 C 206.761719 44.90625 206.957031 44.695312 207.160156 44.480469 C 207.246094 44.386719 207.335938 44.277344 207.425781 44.1875 C 207.632812 43.972656 207.84375 43.785156 208.050781 43.597656 C 208.125 43.53125 208.199219 43.453125 208.273438 43.390625 C 208.496094 43.203125 208.707031 43.039062 208.925781 42.882812 C 208.988281 42.839844 209.046875 42.785156 209.105469 42.746094 C 209.335938 42.585938 209.5625 42.453125 209.785156 42.328125 C 209.832031 42.300781 209.875 42.265625 209.921875 42.238281 C 210.167969 42.109375 210.40625 42 210.640625 41.90625 C 210.667969 41.890625 210.695312 41.878906 210.71875 41.867188 C 210.972656 41.765625 211.226562 41.683594 211.472656 41.621094 C 211.484375 41.617188 211.488281 41.613281 211.496094 41.613281 C 212.28125 41.410156 213.027344 41.378906 213.738281 41.46875 C 213.738281 41.46875 213.761719 41.484375 213.769531 41.488281 L 215.375 41.914062 " fill-opacity="1" fill-rule="nonzero"/></svg>