<svg xmlns="http://www.w3.org/2000/svg" xmlns:xlink="http://www.w3.org/1999/xlink" width="500" zoomAndPan="magnify" viewBox="0 0 375 374.999991" height="500" preserveAspectRatio="xMidYMid meet" version="1.0"><path fill="#12100e" d="M 211.914062 118.316406 C 211.914062 89.652344 225.367188 77.089844 231.558594 60.453125 C 237.75 43.824219 218.285156 44.175781 218.285156 44.175781 L 156.714844 44.175781 C 156.714844 44.175781 137.253906 43.824219 143.445312 60.453125 C 149.636719 77.089844 163.082031 89.652344 163.082031 118.316406 L 211.914062 118.316406 " fill-opacity="1" fill-rule="nonzero"/><path fill="#12100e" d="M 139.992188 310.828125 C 171.441406 227.734375 163.082031 131.257812 163.082031 131.257812 L 211.914062 131.257812 C 211.914062 131.257812 203.554688 227.734375 235.007812 310.828125 L 139.992188 310.828125 " fill-opacity="1" fill-rule="nonzero"/><path fill="#12100e" d="M 109.007812 374.933594 C 109.007812 331.753906 128.136719 331.753906 128.136719 331.753906 L 246.867188 331.753906 C 246.867188 331.753906 265.992188 331.753906 265.992188 374.933594 L 109.007812 374.933594 " fill-opacity="1" fill-rule="nonzero"/><path fill="#12100e" d="M 156.753906 41.226562 C 156.753906 41.226562 156.460938 33.183594 167.019531 33.183594 L 208.015625 33.183594 C 218.578125 33.183594 218.285156 41.226562 218.285156 41.226562 L 156.753906 41.226562 " fill-opacity="1" fill-rule="nonzero"/><path fill="#12100e" d="M 191.75 30.414062 L 191.75 20.824219 L 203.304688 20.824219 C 203.851562 20.824219 204.289062 20.382812 204.289062 19.839844 L 204.289062 13.507812 C 204.289062 12.964844 203.851562 12.527344 203.304688 12.527344 L 191.75 12.527344 L 191.75 0.964844 C 191.75 0.421875 191.308594 -0.0195312 190.765625 -0.0195312 L 184.433594 -0.0195312 C 183.890625 -0.0195312 183.449219 0.421875 183.449219 0.964844 L 183.449219 12.527344 L 171.894531 12.527344 C 171.351562 12.527344 170.910156 12.964844 170.910156 13.507812 L 170.910156 19.839844 C 170.910156 20.382812 171.351562 20.824219 171.894531 20.824219 L 183.449219 20.824219 L 183.449219 30.414062 L 191.75 30.414062 " fill-opacity="1" fill-rule="nonzero"/><path fill="#12100e" d="M 216.636719 124.785156 C 216.636719 126.730469 215.058594 128.308594 213.113281 128.308594 L 161.886719 128.308594 C 159.941406 128.308594 158.367188 126.730469 158.367188 124.785156 C 158.367188 122.839844 159.941406 121.265625 161.886719 121.265625 L 213.113281 121.265625 C 215.058594 121.265625 216.636719 122.839844 216.636719 124.785156 " fill-opacity="1" fill-rule="nonzero"/><path fill="#12100e" d="M 244.296875 321.246094 C 244.296875 325.367188 240.953125 328.710938 236.828125 328.710938 L 138.171875 328.710938 C 134.046875 328.710938 130.707031 325.367188 130.707031 321.246094 C 130.707031 317.121094 134.046875 313.777344 138.171875 313.777344 L 236.828125 313.777344 C 240.953125 313.777344 244.296875 317.121094 244.296875 321.246094 " fill-opacity="1" fill-rule="nonzero"/></svg>