<svg xmlns="http://www.w3.org/2000/svg" xmlns:xlink="http://www.w3.org/1999/xlink" width="500" zoomAndPan="magnify" viewBox="0 0 375 374.999991" height="500" preserveAspectRatio="xMidYMid meet" version="1.0"><defs><clipPath id="694563da84"><path d="M 104.296875 329 L 270.796875 329 L 270.796875 375 L 104.296875 375 Z M 104.296875 329 " clip-rule="nonzero"/></clipPath></defs><path fill="#12100e" d="M 212.625 105.152344 C 212.625 74.90625 226.824219 61.648438 233.367188 44.089844 C 233.367188 44.089844 233.882812 42.976562 232.765625 42.976562 C 231.902344 42.976562 231.949219 43.488281 231.949219 43.488281 C 231.949219 47.023438 228.910156 49.886719 225.15625 49.886719 C 221.40625 49.886719 218.363281 47.023438 218.363281 43.488281 C 218.363281 43.488281 218.386719 42.851562 217.851562 42.851562 C 217.316406 42.851562 217.316406 43.488281 217.316406 43.488281 C 217.316406 47.023438 214.273438 49.886719 210.519531 49.886719 C 206.769531 49.886719 203.730469 47.023438 203.730469 43.488281 C 203.730469 43.488281 203.75 42.851562 203.132812 42.851562 C 202.515625 42.851562 202.542969 43.488281 202.542969 43.488281 C 202.542969 47.023438 199.050781 49.886719 195.296875 49.886719 C 191.542969 49.886719 188.5 47.023438 188.5 43.488281 C 188.5 43.488281 188.328125 42.851562 187.703125 42.851562 C 186.921875 42.851562 187.042969 43.621094 187.042969 43.621094 C 187.042969 47.15625 184.003906 50.019531 180.25 50.019531 C 176.5 50.019531 172.550781 47.023438 172.550781 43.488281 C 172.550781 43.488281 172.578125 42.851562 171.960938 42.851562 C 171.347656 42.851562 171.367188 43.488281 171.367188 43.488281 C 171.367188 47.023438 168.324219 49.886719 164.570312 49.886719 C 160.820312 49.886719 157.777344 47.023438 157.777344 43.488281 C 157.777344 43.488281 157.78125 42.851562 157.246094 42.851562 C 156.710938 42.851562 156.730469 43.488281 156.730469 43.488281 C 156.730469 47.023438 153.6875 49.886719 149.9375 49.886719 C 146.1875 49.886719 143.144531 47.023438 143.144531 43.488281 C 143.144531 43.488281 143.191406 42.976562 142.332031 42.976562 C 141.214844 42.976562 141.730469 44.089844 141.730469 44.089844 C 148.269531 61.648438 162.464844 74.90625 162.464844 105.152344 L 212.625 105.152344 " fill-opacity="1" fill-rule="nonzero"/><path fill="#12100e" d="M 237.714844 296.945312 C 213.199219 232.214844 211.023438 144.304688 211.566406 117.921875 L 163.527344 117.921875 C 164.070312 144.304688 161.894531 232.214844 137.378906 296.945312 L 237.714844 296.945312 " fill-opacity="1" fill-rule="nonzero"/><path fill="#12100e" d="M 181.539062 19.019531 C 181.960938 19.019531 183.324219 18.953125 183.6875 17.996094 C 184.050781 17.039062 183.460938 16.824219 183.460938 16.824219 C 180.863281 15.21875 179.125 12.355469 179.125 9.074219 C 179.125 4.039062 183.210938 -0.0429688 188.25 -0.0429688 C 193.289062 -0.0429688 197.375 4.039062 197.375 9.074219 C 197.375 12.355469 195.636719 15.21875 193.039062 16.824219 C 193.039062 16.824219 192.449219 17.039062 192.808594 17.996094 C 193.175781 18.953125 194.539062 19.019531 194.960938 19.019531 L 181.539062 19.019531 " fill-opacity="1" fill-rule="nonzero"/><path fill="#12100e" d="M 174.625 43.574219 C 174.628906 45.691406 177.464844 47.941406 180.25 47.941406 C 182.824219 47.941406 184.917969 46.046875 184.964844 43.699219 C 184.941406 43.246094 184.992188 42.421875 185.605469 41.699219 C 185.644531 41.65625 185.691406 41.625 185.730469 41.582031 L 173.890625 41.582031 C 174.617188 42.347656 174.636719 43.300781 174.625 43.574219 " fill-opacity="1" fill-rule="nonzero"/><path fill="#12100e" d="M 189.683594 41.582031 C 190.09375 41.976562 190.375 42.464844 190.503906 42.941406 L 190.578125 43.207031 L 190.578125 43.488281 C 190.578125 45.871094 192.695312 47.808594 195.296875 47.808594 C 198.003906 47.808594 200.464844 45.75 200.464844 43.488281 C 200.457031 43.300781 200.476562 42.347656 201.203125 41.582031 L 189.683594 41.582031 " fill-opacity="1" fill-rule="nonzero"/><path fill="#12100e" d="M 215.976562 41.582031 L 205.0625 41.582031 C 205.78125 42.339844 205.8125 43.28125 205.804688 43.550781 C 205.808594 45.871094 207.921875 47.808594 210.519531 47.808594 C 213.121094 47.808594 215.238281 45.871094 215.238281 43.488281 C 215.238281 43.222656 215.296875 42.3125 215.976562 41.582031 " fill-opacity="1" fill-rule="nonzero"/><path fill="#12100e" d="M 149.9375 47.808594 C 152.539062 47.808594 154.652344 45.871094 154.652344 43.488281 C 154.644531 43.28125 154.671875 42.335938 155.371094 41.582031 L 154.996094 41.582031 C 149.824219 41.582031 147.125 43.410156 145.707031 45.367188 C 146.476562 46.808594 148.078125 47.808594 149.9375 47.808594 " fill-opacity="1" fill-rule="nonzero"/><path fill="#12100e" d="M 159.855469 43.488281 C 159.855469 45.871094 161.972656 47.808594 164.570312 47.808594 C 167.171875 47.808594 169.289062 45.871094 169.289062 43.488281 C 169.28125 43.28125 169.308594 42.339844 170.03125 41.582031 L 159.121094 41.582031 C 159.796875 42.3125 159.859375 43.222656 159.855469 43.488281 " fill-opacity="1" fill-rule="nonzero"/><path fill="#12100e" d="M 220.441406 43.558594 C 220.441406 45.871094 222.558594 47.808594 225.15625 47.808594 C 227.019531 47.808594 228.617188 46.808594 229.382812 45.367188 C 227.96875 43.410156 225.269531 41.582031 220.09375 41.582031 L 219.722656 41.582031 C 220.417969 42.335938 220.449219 43.285156 220.441406 43.558594 " fill-opacity="1" fill-rule="nonzero"/><path fill="#12100e" d="M 154.539062 39.625 C 154.539062 39.625 154.230469 31.132812 165.382812 31.132812 L 209.710938 31.132812 C 220.867188 31.132812 220.558594 39.625 220.558594 39.625 L 154.539062 39.625 " fill-opacity="1" fill-rule="nonzero"/><path fill="#12100e" d="M 163.886719 29.148438 C 163.886719 29.148438 163.578125 20.65625 174.730469 20.65625 L 199.324219 20.65625 C 210.480469 20.65625 210.171875 29.148438 210.171875 29.148438 L 163.886719 29.148438 " fill-opacity="1" fill-rule="nonzero"/><path fill="#12100e" d="M 218.3125 111.398438 C 218.3125 113.449219 216.648438 115.113281 214.59375 115.113281 L 160.5 115.113281 C 158.445312 115.113281 156.78125 113.449219 156.78125 111.398438 C 156.78125 109.347656 158.445312 107.679688 160.5 107.679688 L 214.59375 107.679688 C 216.648438 107.679688 218.3125 109.347656 218.3125 111.398438 " fill-opacity="1" fill-rule="nonzero"/><path fill="#12100e" d="M 241.628906 303.800781 C 241.628906 305.859375 239.960938 307.519531 237.90625 307.519531 L 137.183594 307.519531 C 135.132812 307.519531 133.464844 305.859375 133.464844 303.800781 C 133.464844 301.75 135.132812 300.089844 137.183594 300.089844 L 237.90625 300.089844 C 239.960938 300.089844 241.628906 301.75 241.628906 303.800781 " fill-opacity="1" fill-rule="nonzero"/><g clip-path="url(#694563da84)"><path fill="#12100e" d="M 104.664062 374.941406 C 104.664062 329.367188 124.859375 329.367188 124.859375 329.367188 L 250.230469 329.367188 C 250.230469 329.367188 270.429688 329.367188 270.429688 374.941406 L 104.664062 374.941406 " fill-opacity="1" fill-rule="nonzero"/></g><path fill="#12100e" d="M 247.523438 318.28125 C 247.523438 322.628906 243.988281 326.15625 239.636719 326.15625 L 135.457031 326.15625 C 131.105469 326.15625 127.574219 322.628906 127.574219 318.28125 C 127.574219 313.925781 131.105469 310.398438 135.457031 310.398438 L 239.636719 310.398438 C 243.988281 310.398438 247.523438 313.925781 247.523438 318.28125 " fill-opacity="1" fill-rule="nonzero"/></svg>