<svg xmlns="http://www.w3.org/2000/svg" xmlns:xlink="http://www.w3.org/1999/xlink" width="500" zoomAndPan="magnify" viewBox="0 0 375 374.999991" height="500" preserveAspectRatio="xMidYMid meet" version="1.0"><path fill="#12100e" d="M 71.613281 374.941406 C 71.613281 322.785156 94.734375 322.785156 94.734375 322.785156 L 238.253906 322.785156 C 238.253906 322.785156 261.371094 322.785156 261.371094 374.941406 L 71.613281 374.941406 " fill-opacity="1" fill-rule="nonzero"/><path fill="#12100e" d="M 235.148438 308.90625 C 235.148438 313.886719 231.101562 317.921875 226.121094 317.921875 L 106.863281 317.921875 C 101.882812 317.921875 97.839844 313.886719 97.839844 308.90625 C 97.839844 303.925781 101.882812 299.886719 106.863281 299.886719 L 226.121094 299.886719 C 231.101562 299.886719 235.148438 303.925781 235.148438 308.90625 " fill-opacity="1" fill-rule="nonzero"/><path fill="#12100e" d="M 223.917969 293.949219 C 281.566406 171.1875 251.238281 91.3125 251.238281 91.3125 C 224.59375 24.269531 170.277344 41.027344 166.671875 39.34375 C 163.066406 37.660156 161.496094 32.492188 162.339844 23.707031 C 163.179688 14.929688 159.449219 11.433594 150.542969 5.785156 C 141.632812 0.132812 142.832031 23.964844 142.476562 34.546875 C 142.113281 45.136719 134.167969 46.820312 134.167969 46.820312 C 105.671875 60.136719 100.675781 93.777344 100.675781 93.777344 C 96.3125 112.425781 91.425781 119.34375 86.734375 131.734375 C 82.035156 144.117188 69.882812 159.15625 78.070312 176.355469 C 86.253906 193.5625 91.191406 186.464844 93.355469 190.433594 C 95.519531 194.402344 106.359375 197.894531 112.617188 189.710938 C 118.882812 181.527344 116.226562 173.347656 128.273438 166.375 C 140.308594 159.394531 147.410156 154.464844 162.585938 152.90625 C 162.585938 152.90625 174.277344 152.476562 177.695312 142.085938 C 177.695312 142.085938 176.027344 150.640625 173.285156 156.527344 C 168.292969 167.21875 157.175781 188.09375 131.183594 205.335938 C 94.035156 229.984375 89.917969 279.515625 109.066406 293.949219 L 223.917969 293.949219 " fill-opacity="1" fill-rule="nonzero"/><path fill="#12100e" d="M 138.003906 17.269531 C 137.78125 22.25 137.84375 27.386719 137.722656 30.984375 C 137.359375 41.570312 129.414062 43.257812 129.414062 43.257812 C 116.484375 49.296875 108.390625 59.523438 103.410156 68.886719 L 92.25 51.660156 C 92.25 51.660156 89.574219 50.472656 93.886719 45.71875 C 98.195312 40.96875 110.773438 27.355469 119.988281 22.707031 C 129.199219 18.050781 138.003906 17.269531 138.003906 17.269531 " fill-opacity="1" fill-rule="nonzero"/><path fill="#12100e" d="M 236.898438 270.574219 C 283.28125 158.417969 255.992188 86.5625 255.992188 86.5625 C 229.347656 19.519531 175.035156 36.277344 171.425781 34.59375 C 167.824219 32.910156 166.253906 27.738281 167.09375 18.957031 C 167.09375 18.957031 167.289062 17.382812 167.195312 16.078125 C 167.195312 16.078125 223.910156 1.917969 254.519531 38.148438 C 285.132812 74.378906 305.34375 132.183594 283.550781 193.949219 C 261.757812 255.71875 236.898438 270.574219 236.898438 270.574219 " fill-opacity="1" fill-rule="nonzero"/></svg>