<svg xmlns="http://www.w3.org/2000/svg" xmlns:xlink="http://www.w3.org/1999/xlink" width="500" zoomAndPan="magnify" viewBox="0 0 375 374.999991" height="500" preserveAspectRatio="xMidYMid meet" version="1.0"><defs><clipPath id="0a5ba9e694"><path d="M 72.65625 312 L 302 312 L 302 375 L 72.65625 375 Z M 72.65625 312 " clip-rule="nonzero"/></clipPath></defs><path fill="#12100e" d="M 256.730469 267.160156 C 237.726562 241.515625 219.847656 176.589844 220.601562 140.082031 L 154.21875 140.082031 C 154.960938 176.589844 139.1875 241.515625 118.082031 267.160156 L 256.730469 267.160156 " fill-opacity="1" fill-rule="nonzero"/><path fill="#12100e" d="M 262.136719 276.652344 C 262.136719 279.492188 259.835938 281.792969 257.003906 281.792969 L 117.8125 281.792969 C 114.976562 281.792969 112.671875 279.492188 112.671875 276.652344 C 112.671875 273.808594 114.976562 271.507812 117.8125 271.507812 L 257.003906 271.507812 C 259.835938 271.507812 262.136719 273.808594 262.136719 276.652344 " fill-opacity="1" fill-rule="nonzero"/><g clip-path="url(#0a5ba9e694)"><path fill="#12100e" d="M 72.871094 375.085938 C 72.871094 312.027344 100.785156 312.027344 100.785156 312.027344 L 274.035156 312.027344 C 274.035156 312.027344 301.9375 312.027344 301.9375 375.085938 L 72.871094 375.085938 " fill-opacity="1" fill-rule="nonzero"/></g><path fill="#12100e" d="M 270.28125 296.683594 C 270.28125 302.707031 265.402344 307.582031 259.386719 307.582031 L 115.425781 307.582031 C 109.410156 307.582031 104.535156 302.707031 104.535156 296.683594 C 104.535156 290.664062 109.410156 285.777344 115.425781 285.777344 L 259.386719 285.777344 C 265.402344 285.777344 270.28125 290.664062 270.28125 296.683594 " fill-opacity="1" fill-rule="nonzero"/><path fill="#12100e" d="M 229.921875 131.050781 C 229.921875 133.894531 227.617188 136.195312 224.78125 136.195312 L 150.03125 136.195312 C 147.191406 136.195312 144.894531 133.894531 144.894531 131.050781 C 144.894531 128.210938 147.191406 125.910156 150.03125 125.910156 L 224.78125 125.910156 C 227.617188 125.910156 229.921875 128.210938 229.921875 131.050781 " fill-opacity="1" fill-rule="nonzero"/><path fill="#12100e" d="M 224.882812 121.46875 C 242.371094 109.488281 253.851562 89.371094 253.851562 66.554688 C 253.851562 29.828125 224.101562 0.0546875 187.410156 0.0546875 C 150.707031 0.0546875 120.957031 29.828125 120.957031 66.554688 C 120.957031 89.371094 132.4375 109.488281 149.933594 121.46875 L 224.882812 121.46875 " fill-opacity="1" fill-rule="nonzero"/></svg>