<svg xmlns="http://www.w3.org/2000/svg" xmlns:xlink="http://www.w3.org/1999/xlink" width="1366" zoomAndPan="magnify" viewBox="0 0 1024.5 576" height="768" preserveAspectRatio="xMidYMid meet" version="1.0"><defs><clipPath id="e799322aa3"><path d="M 57.570312 78.203125 L 477.367188 78.203125 L 477.367188 498 L 57.570312 498 Z M 57.570312 78.203125 " clip-rule="nonzero"/></clipPath><clipPath id="ec14779c14"><path d="M 546.625 78.203125 L 966.421875 78.203125 L 966.421875 498 L 546.625 498 Z M 546.625 78.203125 " clip-rule="nonzero"/></clipPath><clipPath id="e23d40119a"><path d="M 181.484375 202.117188 L 353.152344 202.117188 L 353.152344 373.785156 L 181.484375 373.785156 Z M 181.484375 202.117188 " clip-rule="nonzero"/></clipPath><clipPath id="e39dc7db53"><path d="M 670.320312 202.117188 L 842.734375 202.117188 L 842.734375 374.535156 L 670.320312 374.535156 Z M 670.320312 202.117188 " clip-rule="nonzero"/></clipPath></defs><path fill="#ffffff" d="M 111.304688 131.9375 L 59.25 131.9375 L 59.25 79.882812 L 111.304688 79.882812 Z M 215.414062 79.882812 L 163.359375 79.882812 L 163.359375 131.9375 L 215.414062 131.9375 Z M 319.523438 79.882812 L 267.46875 79.882812 L 267.46875 131.9375 L 319.523438 131.9375 Z M 423.632812 79.882812 L 371.578125 79.882812 L 371.578125 131.9375 L 423.632812 131.9375 Z M 423.632812 183.992188 L 475.6875 183.992188 L 475.6875 131.9375 L 423.632812 131.9375 Z M 319.523438 183.992188 L 371.578125 183.992188 L 371.578125 131.9375 L 319.523438 131.9375 Z M 215.414062 183.992188 L 267.46875 183.992188 L 267.46875 131.9375 L 215.414062 131.9375 Z M 111.304688 183.992188 L 163.359375 183.992188 L 163.359375 131.9375 L 111.304688 131.9375 Z M 111.304688 183.992188 L 59.25 183.992188 L 59.25 236.046875 L 111.304688 236.046875 Z M 215.414062 183.992188 L 163.359375 183.992188 L 163.359375 236.046875 L 215.414062 236.046875 Z M 319.523438 183.992188 L 267.46875 183.992188 L 267.46875 236.046875 L 319.523438 236.046875 Z M 423.632812 183.992188 L 371.578125 183.992188 L 371.578125 236.046875 L 423.632812 236.046875 Z M 423.632812 288.101562 L 475.6875 288.101562 L 475.6875 236.046875 L 423.632812 236.046875 Z M 319.523438 288.101562 L 371.578125 288.101562 L 371.578125 236.046875 L 319.523438 236.046875 Z M 215.414062 288.101562 L 267.46875 288.101562 L 267.46875 236.046875 L 215.414062 236.046875 Z M 111.304688 288.101562 L 163.359375 288.101562 L 163.359375 236.046875 L 111.304688 236.046875 Z M 111.304688 288.101562 L 59.25 288.101562 L 59.25 340.15625 L 111.304688 340.15625 Z M 215.414062 288.101562 L 163.359375 288.101562 L 163.359375 340.15625 L 215.414062 340.15625 Z M 319.523438 288.101562 L 267.46875 288.101562 L 267.46875 340.15625 L 319.523438 340.15625 Z M 423.632812 288.101562 L 371.578125 288.101562 L 371.578125 340.15625 L 423.632812 340.15625 Z M 423.632812 392.210938 L 475.6875 392.210938 L 475.6875 340.15625 L 423.632812 340.15625 Z M 319.523438 392.210938 L 371.578125 392.210938 L 371.578125 340.15625 L 319.523438 340.15625 Z M 215.414062 392.210938 L 267.46875 392.210938 L 267.46875 340.15625 L 215.414062 340.15625 Z M 111.304688 392.210938 L 163.359375 392.210938 L 163.359375 340.15625 L 111.304688 340.15625 Z M 111.304688 392.210938 L 59.25 392.210938 L 59.25 444.265625 L 111.304688 444.265625 Z M 215.414062 392.210938 L 163.359375 392.210938 L 163.359375 444.265625 L 215.414062 444.265625 Z M 319.523438 392.210938 L 267.46875 392.210938 L 267.46875 444.265625 L 319.523438 444.265625 Z M 423.632812 392.210938 L 371.578125 392.210938 L 371.578125 444.265625 L 423.632812 444.265625 Z M 423.632812 496.320312 L 475.6875 496.320312 L 475.6875 444.265625 L 423.632812 444.265625 Z M 319.523438 496.320312 L 371.578125 496.320312 L 371.578125 444.265625 L 319.523438 444.265625 Z M 215.363281 496.320312 L 267.417969 496.320312 L 267.417969 444.265625 L 215.363281 444.265625 Z M 111.304688 496.320312 L 163.359375 496.320312 L 163.359375 444.265625 L 111.304688 444.265625 Z M 111.304688 496.320312 " fill-opacity="1" fill-rule="nonzero"/><g clip-path="url(#e799322aa3)"><path fill="#010101" d="M 57.570312 78.203125 L 57.570312 498 L 477.367188 498 L 477.367188 78.203125 Z M 475.6875 183.992188 L 423.632812 183.992188 L 423.632812 236.046875 L 475.6875 236.046875 L 475.6875 288.101562 L 423.632812 288.101562 L 423.632812 340.15625 L 475.6875 340.15625 L 475.6875 392.210938 L 423.632812 392.210938 L 423.632812 444.265625 L 475.6875 444.265625 L 475.6875 496.320312 L 423.632812 496.320312 L 423.632812 444.265625 L 371.578125 444.265625 L 371.578125 496.320312 L 319.523438 496.320312 L 319.523438 444.265625 L 267.46875 444.265625 L 267.46875 496.320312 L 215.414062 496.320312 L 215.414062 444.265625 L 163.359375 444.265625 L 163.359375 496.320312 L 111.304688 496.320312 L 111.304688 444.265625 L 59.25 444.265625 L 59.25 392.210938 L 111.304688 392.210938 L 111.304688 340.15625 L 59.25 340.15625 L 59.25 288.101562 L 111.304688 288.101562 L 111.304688 236.046875 L 59.25 236.046875 L 59.25 183.992188 L 111.304688 183.992188 L 111.304688 131.9375 L 59.25 131.9375 L 59.25 79.882812 L 111.304688 79.882812 L 111.304688 131.9375 L 163.359375 131.9375 L 163.359375 79.882812 L 215.414062 79.882812 L 215.414062 131.9375 L 267.46875 131.9375 L 267.46875 79.882812 L 319.523438 79.882812 L 319.523438 131.9375 L 371.578125 131.9375 L 371.578125 79.882812 L 423.632812 79.882812 L 423.632812 131.9375 L 475.6875 131.9375 Z M 423.632812 131.9375 L 423.632812 183.992188 L 371.578125 183.992188 L 371.578125 131.9375 Z M 267.46875 183.992188 L 267.46875 131.9375 L 319.523438 131.9375 L 319.523438 183.992188 Z M 163.359375 183.992188 L 163.359375 131.9375 L 215.414062 131.9375 L 215.414062 183.992188 Z M 163.359375 236.046875 L 111.304688 236.046875 L 111.304688 183.992188 L 163.359375 183.992188 Z M 215.414062 236.046875 L 215.414062 183.992188 L 267.46875 183.992188 L 267.46875 236.046875 Z M 319.523438 183.992188 L 371.578125 183.992188 L 371.578125 236.046875 L 319.523438 236.046875 Z M 371.578125 236.046875 L 423.632812 236.046875 L 423.632812 288.101562 L 371.578125 288.101562 Z M 267.46875 236.046875 L 319.523438 236.046875 L 319.523438 288.101562 L 267.46875 288.101562 Z M 215.414062 288.101562 L 163.359375 288.101562 L 163.359375 236.046875 L 215.414062 236.046875 Z M 163.359375 340.15625 L 111.304688 340.15625 L 111.304688 288.101562 L 163.359375 288.101562 Z M 267.46875 288.101562 L 267.46875 340.15625 L 215.414062 340.15625 L 215.414062 288.101562 Z M 319.523438 288.101562 L 371.578125 288.101562 L 371.578125 340.15625 L 319.523438 340.15625 Z M 371.578125 340.15625 L 423.632812 340.15625 L 423.632812 392.210938 L 371.578125 392.210938 Z M 319.523438 340.15625 L 319.523438 392.210938 L 267.46875 392.210938 L 267.46875 340.15625 Z M 215.414062 340.15625 L 215.414062 392.210938 L 163.359375 392.210938 L 163.359375 340.15625 Z M 163.359375 392.210938 L 163.359375 444.265625 L 111.304688 444.265625 L 111.304688 392.210938 Z M 267.46875 392.210938 L 267.46875 444.265625 L 215.414062 444.265625 L 215.414062 392.210938 Z M 371.578125 392.210938 L 371.578125 444.265625 L 319.523438 444.265625 L 319.523438 392.210938 Z M 371.578125 392.210938 " fill-opacity="1" fill-rule="nonzero"/></g><path fill="#ffffff" d="M 912.6875 131.9375 L 912.6875 79.882812 L 964.742188 79.882812 L 964.742188 131.9375 Z M 964.742188 236.046875 L 964.742188 183.992188 L 912.6875 183.992188 L 912.6875 236.046875 Z M 964.742188 340.15625 L 964.742188 288.101562 L 912.6875 288.101562 L 912.6875 340.15625 Z M 964.742188 444.265625 L 964.742188 392.210938 L 912.6875 392.210938 L 912.6875 444.265625 Z M 860.632812 444.265625 L 860.632812 496.320312 L 912.6875 496.320312 L 912.6875 444.265625 Z M 860.632812 340.15625 L 860.632812 392.210938 L 912.6875 392.210938 L 912.6875 340.15625 Z M 860.632812 236.046875 L 860.632812 288.101562 L 912.6875 288.101562 L 912.6875 236.046875 Z M 860.632812 131.9375 L 860.632812 183.992188 L 912.6875 183.992188 L 912.6875 131.9375 Z M 860.632812 131.9375 L 860.632812 79.882812 L 808.578125 79.882812 L 808.578125 131.9375 Z M 860.632812 236.046875 L 860.632812 183.992188 L 808.578125 183.992188 L 808.578125 236.046875 Z M 860.632812 340.15625 L 860.632812 288.101562 L 808.578125 288.101562 L 808.578125 340.15625 Z M 860.632812 444.265625 L 860.632812 392.210938 L 808.578125 392.210938 L 808.578125 444.265625 Z M 756.523438 444.265625 L 756.523438 496.320312 L 808.578125 496.320312 L 808.578125 444.265625 Z M 756.523438 340.15625 L 756.523438 392.210938 L 808.578125 392.210938 L 808.578125 340.15625 Z M 756.523438 236.046875 L 756.523438 288.101562 L 808.578125 288.101562 L 808.578125 236.046875 Z M 756.523438 131.9375 L 756.523438 183.992188 L 808.578125 183.992188 L 808.578125 131.9375 Z M 756.523438 131.9375 L 756.523438 79.882812 L 704.46875 79.882812 L 704.46875 131.9375 Z M 756.523438 236.046875 L 756.523438 183.992188 L 704.46875 183.992188 L 704.46875 236.046875 Z M 756.523438 340.15625 L 756.523438 288.101562 L 704.46875 288.101562 L 704.46875 340.15625 Z M 756.523438 444.265625 L 756.523438 392.210938 L 704.46875 392.210938 L 704.46875 444.265625 Z M 652.414062 444.265625 L 652.414062 496.320312 L 704.46875 496.320312 L 704.46875 444.265625 Z M 652.414062 340.15625 L 652.414062 392.210938 L 704.46875 392.210938 L 704.46875 340.15625 Z M 652.414062 236.046875 L 652.414062 288.101562 L 704.46875 288.101562 L 704.46875 236.046875 Z M 652.414062 131.9375 L 652.414062 183.992188 L 704.46875 183.992188 L 704.46875 131.9375 Z M 652.414062 131.9375 L 652.414062 79.882812 L 600.359375 79.882812 L 600.359375 131.9375 Z M 652.414062 236.046875 L 652.414062 183.992188 L 600.359375 183.992188 L 600.359375 236.046875 Z M 652.414062 340.15625 L 652.414062 288.101562 L 600.359375 288.101562 L 600.359375 340.15625 Z M 652.414062 444.265625 L 652.414062 392.210938 L 600.359375 392.210938 L 600.359375 444.265625 Z M 548.304688 444.265625 L 548.304688 496.320312 L 600.359375 496.320312 L 600.359375 444.265625 Z M 548.304688 340.15625 L 548.304688 392.210938 L 600.359375 392.210938 L 600.359375 340.15625 Z M 548.304688 235.996094 L 548.304688 288.050781 L 600.359375 288.050781 L 600.359375 235.996094 Z M 548.304688 131.9375 L 548.304688 183.992188 L 600.359375 183.992188 L 600.359375 131.9375 Z M 548.304688 131.9375 " fill-opacity="1" fill-rule="nonzero"/><g clip-path="url(#ec14779c14)"><path fill="#010101" d="M 966.421875 78.203125 L 546.625 78.203125 L 546.625 498 L 966.421875 498 Z M 860.632812 496.320312 L 860.632812 444.265625 L 808.578125 444.265625 L 808.578125 496.320312 L 756.523438 496.320312 L 756.523438 444.265625 L 704.46875 444.265625 L 704.46875 496.320312 L 652.414062 496.320312 L 652.414062 444.265625 L 600.359375 444.265625 L 600.359375 496.320312 L 548.304688 496.320312 L 548.304688 444.265625 L 600.359375 444.265625 L 600.359375 392.210938 L 548.304688 392.210938 L 548.304688 340.15625 L 600.359375 340.15625 L 600.359375 288.101562 L 548.304688 288.101562 L 548.304688 236.046875 L 600.359375 236.046875 L 600.359375 183.992188 L 548.304688 183.992188 L 548.304688 131.9375 L 600.359375 131.9375 L 600.359375 79.882812 L 652.414062 79.882812 L 652.414062 131.9375 L 704.46875 131.9375 L 704.46875 79.882812 L 756.523438 79.882812 L 756.523438 131.9375 L 808.578125 131.9375 L 808.578125 79.882812 L 860.632812 79.882812 L 860.632812 131.9375 L 912.6875 131.9375 L 912.6875 79.882812 L 964.742188 79.882812 L 964.742188 131.9375 L 912.6875 131.9375 L 912.6875 183.992188 L 964.742188 183.992188 L 964.742188 236.046875 L 912.6875 236.046875 L 912.6875 288.101562 L 964.742188 288.101562 L 964.742188 340.15625 L 912.6875 340.15625 L 912.6875 392.210938 L 964.742188 392.210938 L 964.742188 444.265625 L 912.6875 444.265625 L 912.6875 496.320312 Z M 912.6875 444.265625 L 860.632812 444.265625 L 860.632812 392.210938 L 912.6875 392.210938 Z M 860.632812 288.101562 L 912.6875 288.101562 L 912.6875 340.15625 L 860.632812 340.15625 Z M 860.632812 183.992188 L 912.6875 183.992188 L 912.6875 236.046875 L 860.632812 236.046875 Z M 808.578125 183.992188 L 808.578125 131.9375 L 860.632812 131.9375 L 860.632812 183.992188 Z M 808.578125 236.046875 L 860.632812 236.046875 L 860.632812 288.101562 L 808.578125 288.101562 Z M 860.632812 340.15625 L 860.632812 392.210938 L 808.578125 392.210938 L 808.578125 340.15625 Z M 808.578125 392.210938 L 808.578125 444.265625 L 756.523438 444.265625 L 756.523438 392.210938 Z M 808.578125 288.101562 L 808.578125 340.15625 L 756.523438 340.15625 L 756.523438 288.101562 Z M 756.523438 236.046875 L 756.523438 183.992188 L 808.578125 183.992188 L 808.578125 236.046875 Z M 704.46875 183.992188 L 704.46875 131.9375 L 756.523438 131.9375 L 756.523438 183.992188 Z M 756.523438 288.101562 L 704.46875 288.101562 L 704.46875 236.046875 L 756.523438 236.046875 Z M 756.523438 340.15625 L 756.523438 392.210938 L 704.46875 392.210938 L 704.46875 340.15625 Z M 704.46875 392.210938 L 704.46875 444.265625 L 652.414062 444.265625 L 652.414062 392.210938 Z M 704.46875 340.15625 L 652.414062 340.15625 L 652.414062 288.101562 L 704.46875 288.101562 Z M 704.46875 236.046875 L 652.414062 236.046875 L 652.414062 183.992188 L 704.46875 183.992188 Z M 652.414062 183.992188 L 600.359375 183.992188 L 600.359375 131.9375 L 652.414062 131.9375 Z M 652.414062 288.101562 L 600.359375 288.101562 L 600.359375 236.046875 L 652.414062 236.046875 Z M 652.414062 392.210938 L 600.359375 392.210938 L 600.359375 340.15625 L 652.414062 340.15625 Z M 652.414062 392.210938 " fill-opacity="1" fill-rule="nonzero"/></g><g clip-path="url(#e23d40119a)"><path fill="#39b54a" d="M 267.320312 202.117188 C 219.917969 202.117188 181.484375 240.550781 181.484375 287.953125 C 181.484375 335.351562 219.917969 373.785156 267.320312 373.785156 C 314.71875 373.785156 353.152344 335.351562 353.152344 287.953125 C 353.152344 240.550781 314.71875 202.117188 267.320312 202.117188 Z M 315.625 274.703125 L 265.40625 324.925781 C 262.988281 327.34375 259.714844 328.703125 256.289062 328.703125 C 252.914062 328.703125 249.640625 327.34375 247.222656 324.925781 L 222.136719 299.839844 C 217.097656 294.800781 217.097656 286.691406 222.136719 281.65625 C 227.171875 276.667969 235.234375 276.667969 240.269531 281.65625 L 256.289062 297.722656 L 297.441406 256.570312 C 302.476562 251.53125 310.589844 251.53125 315.625 256.570312 C 320.613281 261.558594 320.613281 269.667969 315.625 274.703125 Z M 315.625 274.703125 " fill-opacity="1" fill-rule="nonzero"/></g><path fill="#ffffff" d="M 315.625 274.703125 L 265.40625 324.925781 C 262.988281 327.34375 259.714844 328.703125 256.289062 328.703125 C 252.914062 328.703125 249.640625 327.34375 247.222656 324.925781 L 222.136719 299.839844 C 217.097656 294.800781 217.097656 286.691406 222.136719 281.65625 C 227.171875 276.667969 235.234375 276.667969 240.269531 281.65625 L 256.289062 297.722656 L 297.441406 256.570312 C 302.476562 251.53125 310.589844 251.53125 315.625 256.570312 C 320.613281 261.558594 320.613281 269.667969 315.625 274.703125 Z M 315.625 274.703125 " fill-opacity="1" fill-rule="nonzero"/><g clip-path="url(#e39dc7db53)"><path fill="#ed1d2b" d="M 842.746094 288.335938 C 842.746094 335.949219 804.148438 374.542969 756.539062 374.542969 C 708.925781 374.542969 670.328125 335.949219 670.328125 288.335938 C 670.328125 240.722656 708.925781 202.125 756.539062 202.125 C 804.148438 202.125 842.746094 240.722656 842.746094 288.335938 " fill-opacity="1" fill-rule="nonzero"/></g><path fill="#ffffff" d="M 799.066406 245.804688 C 794.898438 241.636719 788.144531 241.636719 783.976562 245.804688 L 756.539062 273.242188 L 729.097656 245.804688 C 724.933594 241.636719 718.175781 241.636719 714.007812 245.804688 C 709.839844 249.972656 709.839844 256.730469 714.007812 260.898438 L 741.445312 288.335938 L 714.007812 315.773438 C 709.839844 319.941406 709.839844 326.699219 714.007812 330.867188 C 718.175781 335.03125 724.933594 335.03125 729.097656 330.867188 L 756.539062 303.425781 L 783.976562 330.867188 C 788.144531 335.03125 794.898438 335.03125 799.066406 330.867188 C 803.234375 326.699219 803.234375 319.941406 799.066406 315.773438 L 771.628906 288.335938 L 799.066406 260.898438 C 803.234375 256.730469 803.234375 249.972656 799.066406 245.804688 " fill-opacity="1" fill-rule="nonzero"/></svg>